# AST/ASF file generated using VICON BodyLanguage
# -----------------------------------------------
:version 1.10
:name VICON
:units
  mass 1.0
  length 0.45
  angle deg
:documentation
   .ast/.asf automatically generated from VICON data using
   VICON BodyBuilder and BodyLanguage model FoxedUp or BRILLIANT.MOD
:root
   order TX TY TZ RX RY RZ
   axis XYZ
   position 0 0 0  
   orientation 0 0 0 
:bonedata
  begin
     id 1 
     name lhipjoint
     direction 0.612567 -0.751349 0.245431 
     length 2.42285 
     axis 0 0 0  XYZ
  end
  begin
     id 2 
     name lfemur
     direction 0.34202 -0.939693 0  
     length 7.11304  
     axis 0 0 20  XYZ
    dof rx ry rz
    limits (-160.0 20.0)
           (-70.0 70.0)
           (-60.0 70.0)
  end
  begin
     id 3 
     name ltibia
     direction 0.34202 -0.939693 0   
     length 7.84529   
     axis 0 0 20   XYZ
    dof rx
    limits (-10.0 170.0)
  end
  begin
     id 4 
     name lfoot
     direction 0.0779239 -0.214094 0.9737   
     length 1.97176   
     axis -90 7.62852e-016 20   XYZ
    dof rx rz
    limits (-45.0 90.0)
           (-70.0 20.0)
  end
  begin
     id 5 
     name ltoes
     direction 1.53565e-011 -4.21709e-011 1   
     length 0.993197   
     axis -90 7.62852e-016 20   XYZ
    dof rx
    limits (-90.0 20.0)
  end
  begin
     id 6 
     name rhipjoint
     direction -0.665722 -0.709315 0.231701   
     length 2.56642  
     axis 0 0 0  XYZ 
  end
  begin
     id 7 
     name rfemur
     direction -0.34202 -0.939693 0   
     length 7.32108   
     axis 0 0 -20   XYZ
    dof rx ry rz
    limits (-160.0 20.0)
           (-70.0 70.0)
           (-70.0 60.0)
  end
  begin
     id 8 
     name rtibia
     direction -0.34202 -0.939693 0   
     length 7.81254   
     axis 0 0 -20   XYZ
    dof rx
    limits (-10.0 170.0)
 end
 begin
     id 9 
     name rfoot
     direction -0.0832806 -0.228812 0.969902   
     length 2.08278  
     axis -90 -7.62852e-016 -20   XYZ
    dof rx rz
    limits (-45.0 90.0)
           (-20.0 70.0)
  end
  begin
     id 10 
     name rtoes
     direction -1.53589e-011 -4.22086e-011 1   
     length 1.04609   
     axis -90 -7.62852e-016 -20   XYZ
    dof rx
    limits (-90.0 20.0)
  end
  begin
     id 11 
     name lowerback
     direction -0.00506013 0.988403 -0.151766   
     length 2.01978   
     axis 0 0 0   XYZ
    dof rx ry rz
    limits (-20.0 45.0)
           (-30.0 30.0)
           (-30.0 30.0)
  end
  begin
     id 12 
     name upperback
     direction -0.00836389 0.99968 0.0238859   
     length 2.01276   
     axis 0 0 0   XYZ
    dof rx ry rz
    limits (-20.0 45.0)
           (-30.0 30.0)
           (-30.0 30.0)
  end
  begin
     id 13 
     name thorax
     direction -0.00684136 0.995386 0.0957043   
     length 2.07303   
     axis 0 0 0   XYZ
    dof rx ry rz
    limits (-20.0 45.0)
           (-30.0 30.0)
           (-30.0 30.0)
  end
  begin
     id 14 
     name lowerneck
     direction -0.0161045 0.999661 0.0204485   
     length 1.91243   
     axis 0 0 0   XYZ
    dof rx ry rz
    limits (-20.0 45.0)
           (-30.0 30.0)
           (-30.0 30.0)
  end
  begin
     id 15 
     name upperneck
     direction 0.0553583 0.990946 -0.122319   
     length 1.91574   
     axis 0 0 0   XYZ
    dof rx ry rz
    limits (-20.0 45.0)
           (-30.0 30.0)
           (-30.0 30.0)
  end
  begin
     id 16
     name head
     direction 0.0180273 0.998839 -0.0446756  
     length 1.92693  
     axis 0 0 0   XYZ
    dof rx ry rz
    limits (-20.0 45.0)
           (-30.0 30.0)
           (-30.0 30.0)
  end
  begin
     id 17 
     name lclavicle
     direction 0.945646 0.319323 -0.0615358  
     length 4.0076  
     axis 0 0 0   XYZ
    dof ry rz
    limits (-20.0 10.0)
           (0.0 20.0)
  end
  begin
     id 18 
     name lhumerus
     direction 1 -4.48967e-011 -2.79996e-027   
     length 5.64147   
     axis 180 -30 -90   XYZ
    dof rx ry rz
    limits (-60.0 90.0)
           (-90.0 90.0)
           (-90.0 90.0)
  end
  begin
     id 19
     name lradius
     direction 1 -4.48976e-011 -9.5122e-027   
     length 2.86444   
     axis 180 -30 -90   XYZ
    dof rx
    limits (-10.0 170.0)
  end
  begin
     id 20
     name lwrist
     direction 1 -4.48983e-011 -1.24047e-026   
     length 1.43222   
     axis 9.05591e-015 90 90   XYZ
    dof ry
    limits (-180.0 0.0)
 end
  begin
     id 21 
     name lhand
     direction 1 -4.4892e-011 -2.48094e-026   
     length 0.722123   
     axis 1.58305e-014 90 90   XYZ
    dof rx rz
    limits (-90.0 90.0)
           (-45.0 45.0)
  end
  begin
     id 22 
     name lfingers
     direction 1 -4.48895e-011 -4.96187e-026   
     length 0.582194   
     axis 3.1661e-014 90 90   XYZ
    dof rx
    limits (0.0 90.0)
  end
  begin
     id 23
     name lthumb
     direction 0.707107 -6.34961e-011 0.707107   
     length 0.835918   
     axis -90 45 2.85299e-015   XYZ
    dof rx rz
    limits (-45.0 45.0)
           (-45.0 45.0)
  end
  begin
     id 24 
     name rclavicle
     direction -0.932635 0.324218 -0.15835   
     length 3.65819  
     axis 0 0 0   XYZ 
    dof ry rz
    limits (-10.0 20.0)
           (-20.0 0.0)
  end
  begin
     id 25 
     name rhumerus
     direction -1 -4.48965e-011 -4.02296e-027  
     length 5.44729   
     axis 180 30 90   XYZ
    dof rx ry rz
    limits (-90.0 60.0)
           (-90.0 90.0)
           (-90.0 90.0)
  end
  begin
     id 26 
     name rradius
     direction -1 -4.48957e-011 -8.81087e-027   
     length 3.08821   
     axis 180 30 90   XYZ
    dof rx
    limits (-10.0 170.0)
  end
  begin
     id 27 
     name rwrist
     direction -1 -4.49015e-011 -1.24047e-026   
     length 1.5441   
     axis 9.05591e-015 -90 -90   XYZ
    dof ry
    limits (-180.0 0.0)
  end
  begin
     id 28
     name rhand
     direction -1 -4.4891e-011 -2.48094e-026   
     length 0.821049   
     axis 1.58305e-014 -90 -90   XYZ
    dof rx rz
    limits (-90.0 90.0)
           (-45.0 45.0)
  end
  begin
     id 29
     name rfingers
     direction -1 -4.48985e-011 -4.96187e-026   
     length 0.661951   
     axis 3.1661e-014 -90 -90   XYZ
    dof rx
    limits (0.0 90.0)
  end
  begin
     id 30
     name rthumb
     direction -0.707107 -6.34906e-011 0.707107   
     length 0.950433   
     axis -90 -45 -2.85299e-015   XYZ
    dof rx rz
    limits (-45.0 45.0)
           (-45.0 45.0)
  end
:hierarchy
  begin
    root lhipjoint rhipjoint lowerback
    lhipjoint lfemur
    lfemur ltibia
    ltibia lfoot
    lfoot ltoes
    rhipjoint rfemur
    rfemur rtibia
    rtibia rfoot
    rfoot rtoes
    lowerback upperback
    upperback thorax
    thorax lowerneck lclavicle rclavicle
    lowerneck upperneck
    upperneck head
    lclavicle lhumerus
    lhumerus lradius
    lradius lwrist
    lwrist lhand lthumb
    lhand lfingers
    rclavicle rhumerus
    rhumerus rradius
    rradius rwrist
    rwrist rhand rthumb
    rhand rfingers
  end

#!OML:ASF F:\VICON\USERDATA\INSTALL\rory3\rory3.ASF
:FULLY-SPECIFIED
:DEGREES
1672
root 3.05012 17.7718 0.381132 -25.6458 88.9481 -24.2283
lowerback -0.211399 0.664112 2.71409
upperback -1.12439 0.892579 -1.19448
thorax -0.974158 0.418866 -2.75302
lowerneck -3.18981 -5.55724 -5.76349
upperneck 14.4802 -7.78829 6.73118
head 5.36521 -3.61717 2.59569
rclavicle 1.31943e-014 -3.57812e-015
rhumerus 39.221 44.6224 -51.345
rradius 59.9678
rwrist 19.1436
rhand -12.1521 2.31127
rfingers 7.12502
rthumb 13.9104 -27.2035
lclavicle 1.31943e-014 -3.57812e-015
lhumerus 45.7119 -42.2706 57.1616
lradius 69.654
lwrist 19.9173
lhand -19.8738 16.7891
lfingers 7.12502
lthumb 6.46165 46.6705
rfemur 1.24888 1.61454 19.3208
rtibia 14.4337
rfoot -15.4698 -1.36777
rtoes -5.78253
lfemur 0 0 0
ltibia 0
lfoot 0 0
ltoes 0
1673
root 3.04891 17.77 0.380071 -28.4334 88.8815 -27.0222
lowerback -0.257394 0.668622 2.76996
upperback -1.11865 0.897748 -1.15131
thorax -0.941993 0.421676 -2.73936
lowerneck -3.15742 -5.56184 -5.74734
upperneck 14.551 -7.78816 6.65788
head 5.37829 -3.61965 2.57084
rclavicle -6.17475e-015 4.37326e-015
rhumerus 38.2231 43.2399 -53.048
rradius 58.5062
rwrist 17.4077
rhand -11.1942 0.921296
rfingers 7.12502
rthumb 14.8334 -28.5278
lclavicle -6.17475e-015 4.37326e-015
lhumerus 44.6372 -40.9299 58.8436
lradius 68.2747
lwrist 18.5434
lhand -21.0822 18.8639
lfingers 7.12502
lthumb 5.29499 48.7778
rfemur 1.31434 1.60128 19.4095
rtibia 14.2836
rfoot -15.3963 -1.42189
rtoes -6.72234
lfemur 0 0 0
ltibia 0
lfoot 0 0
ltoes 0
1674
root 3.04733 17.7685 0.379329 -29.4277 88.8375 -27.9992
lowerback -0.296389 0.686669 2.77773
upperback -1.08487 0.920524 -1.11947
thorax -0.884283 0.434392 -2.71018
lowerneck -3.19973 -5.58521 -5.73015
upperneck 14.6696 -7.81194 6.57636
head 5.42021 -3.6321 2.53922
rclavicle 9.06955e-016 6.36111e-015
rhumerus 37.3895 41.7655 -54.5208
rradius 56.9749
rwrist 16.0059
rhand -9.99663 -0.392201
rfingers 7.12502
rthumb 15.9869 -29.7525
lclavicle 9.06955e-016 6.36111e-015
lhumerus 43.6161 -39.4974 60.5086
lradius 66.8741
lwrist 17.3077
lhand -21.9826 20.312
lfingers 7.12502
lthumb 4.42556 50.2458
rfemur 1.36992 1.64323 19.4533
rtibia 14.1778
rfoot -15.3387 -1.48423
rtoes -7.00387
lfemur 0 0 0
ltibia 0
lfoot 0 0
ltoes 0
1675
root 3.04569 17.7678 0.377752 -30.2849 88.7909 -28.8282
lowerback -0.296976 0.71203 2.80142
upperback -1.06037 0.954117 -1.09392
thorax -0.856602 0.451756 -2.69706
lowerneck -3.28996 -5.61781 -5.72044
upperneck 14.8616 -7.84842 6.49718
head 5.49436 -3.6486 2.50692
rclavicle 1.93815e-015 5.96354e-016
rhumerus 36.6181 40.289 -55.802
rradius 55.4812
rwrist 15.1961
rhand -8.74585 -1.49758
rfingers 7.12502
rthumb 17.1911 -30.7571
lclavicle 1.93815e-015 5.96354e-016
lhumerus 42.7465 -38.0534 61.9558
lradius 65.5484
lwrist 16.6402
lhand -22.1429 20.0957
lfingers 7.12502
lthumb 4.2708 50.0326
rfemur 1.42387 1.55636 19.4849
rtibia 14.1247
rfoot -15.2348 -1.44933
rtoes -7.31778
lfemur 0 0 0
ltibia 0
lfoot 0 0
ltoes 0
1676
root 3.04346 17.768 0.375843 -27.8321 88.7725 -26.3617
lowerback -0.296724 0.734258 2.76374
upperback -1.04919 0.983566 -1.0857
thorax -0.843995 0.467139 -2.66737
lowerneck -3.34616 -5.61724 -5.70694
upperneck 15.0048 -7.8409 6.4297
head 5.54498 -3.64431 2.48193
rclavicle -1.78533e-014 4.17448e-015
rhumerus 36.0007 38.895 -56.7938
rradius 54.0385
rwrist 14.712
rhand -7.60898 -2.50876
rfingers 7.12502
rthumb 18.285 -31.6693
lclavicle -1.78533e-014 4.17448e-015
lhumerus 42.0759 -36.7285 63.0477
lradius 64.2179
lwrist 16.1287
lhand -22.3771 20.0809
lfingers 7.12502
lthumb 4.04458 50.0223
rfemur 1.43413 1.47672 19.4309
rtibia 14.1001
rfoot -15.154 -1.46943
rtoes -8.24871
lfemur 0 0 0
ltibia 0
lfoot 0 0
ltoes 0
1677
root 3.04184 17.766 0.374211 -29.6899 88.7668 -28.2211
lowerback -0.30676 0.771195 2.81301
upperback -1.05554 1.03278 -1.08345
thorax -0.84085 0.491352 -2.69277
lowerneck -3.32128 -5.63977 -5.68251
upperneck 15.0899 -7.8757 6.43176
head 5.56857 -3.65764 2.47662
rclavicle -5.93869e-015 1.25234e-014
rhumerus 35.469 37.5031 -57.5831
rradius 52.5198
rwrist 14.7041
rhand -6.79412 -3.15888
rfingers 7.12502
rthumb 19.0688 -32.2441
lclavicle -5.93869e-015 1.25234e-014
lhumerus 41.5697 -35.6628 63.8501
lradius 62.9194
lwrist 15.3778
lhand -23.1956 21.1573
lfingers 7.12502
lthumb 3.25424 51.1122
rfemur 1.40897 1.42431 19.4472
rtibia 14.1262
rfoot -15.1734 -1.29429
rtoes -7.26452
lfemur 0 0 0
ltibia 0
lfoot 0 0
ltoes 0
1678
root 3.03947 17.7703 0.374248 -33.131 88.7388 -31.6469
lowerback -0.258906 0.795702 2.87481
upperback -1.06673 1.06704 -1.06719
thorax -0.876116 0.507284 -2.71174
lowerneck -3.31734 -5.66587 -5.65126
upperneck 15.1953 -7.9139 6.41853
head 5.60146 -3.67251 2.46445
rclavicle -4.02539e-015 -5.36719e-015
rhumerus 35.0512 36.1497 -58.274
rradius 50.889
rwrist 15.255
rhand -6.11856 -3.23218
rfingers 7.12502
rthumb 19.7184 -32.2521
lclavicle -4.02539e-015 -5.36719e-015
lhumerus 41.1403 -34.6607 64.4556
lradius 61.6442
lwrist 14.8753
lhand -24.0513 22.1833
lfingers 7.12502
lthumb 2.42785 52.1493
rfemur 1.37196 1.50465 19.5295
rtibia 14.1993
rfoot -15.2617 -1.26517
rtoes -5.72635
lfemur 0 0 0
ltibia 0
lfoot 0 0
ltoes 0
1679
root 3.03853 17.779 0.373064 -35.1829 88.7377 -33.7007
lowerback -0.254102 0.812675 2.91537
upperback -1.05105 1.08973 -1.04994
thorax -0.860793 0.518757 -2.71677
lowerneck -3.36918 -5.70116 -5.67634
upperneck 15.2612 -7.96349 6.44174
head 5.63605 -3.69411 2.47044
rclavicle -3.32964e-015 -2.18663e-015
rhumerus 34.7947 34.9299 -58.6635
rradius 49.3725
rwrist 15.7593
rhand -5.50207 -3.08789
rfingers 7.12502
rthumb 20.311 -32.0458
lclavicle -3.32964e-015 -2.18663e-015
lhumerus 40.8713 -33.6015 64.8901
lradius 60.4823
lwrist 14.9788
lhand -24.0392 22.9482
lfingers 7.12502
lthumb 2.43945 52.914
rfemur 1.32713 1.63182 19.5807
rtibia 14.2299
rfoot -15.3166 -1.48052
rtoes -5.79815
lfemur 0 0 0
ltibia 0
lfoot 0 0
ltoes 0
1680
root 3.03758 17.7845 0.37165 -34.3631 88.7787 -32.9171
lowerback -0.264888 0.814049 2.90152
upperback -1.04874 1.09117 -1.06089
thorax -0.852309 0.519738 -2.72005
lowerneck -3.4054 -5.70993 -5.72279
upperneck 15.3013 -7.9793 6.49538
head 5.65975 -3.69931 2.49242
rclavicle -1.81515e-014 1.0138e-014
rhumerus 34.5899 33.9296 -58.8182
rradius 48.1019
rwrist 15.8052
rhand -5.25125 -3.04367
rfingers 7.12502
rthumb 20.552 -31.9758
lclavicle -1.81515e-014 1.0138e-014
lhumerus 40.6758 -32.5916 65.028
lradius 59.426
lwrist 15.1017
lhand -23.6533 23.4404
lfingers 7.12502
lthumb 2.81221 53.4016
rfemur 1.23595 1.66401 19.5437
rtibia 14.2956
rfoot -15.3212 -1.65801
rtoes -6.5816
lfemur 0 0 0
ltibia 0
lfoot 0 0
ltoes 0
1681
root 3.03746 17.7855 0.370241 -36.3747 88.776 -34.9517
lowerback -0.281707 0.804263 2.97461
upperback -1.03964 1.07766 -1.06876
thorax -0.833078 0.51279 -2.76886
lowerneck -3.44122 -5.70679 -5.70595
upperneck 15.3233 -7.97613 6.49538
head 5.67186 -3.69577 2.48878
rclavicle 1.09953e-014 -4.77083e-015
rhumerus 34.4341 33.0148 -58.8481
rradius 46.996
rwrist 15.7317
rhand -5.05567 -3.60431
rfingers 7.12502
rthumb 20.7399 -32.516
lclavicle 1.09953e-014 -4.77083e-015
lhumerus 40.5708 -31.6668 64.9222
lradius 58.3305
lwrist 14.8202
lhand -23.268 23.2449
lfingers 7.12502
lthumb 3.18428 53.2008
rfemur 1.15801 1.55497 19.5737
rtibia 14.387
rfoot -15.3008 -1.61266
rtoes -6.63481
lfemur 0 0 0
ltibia 0
lfoot 0 0
ltoes 0
1682
root 3.03731 17.7869 0.368106 -35.1281 88.8087 -33.7326
lowerback -0.289627 0.814928 2.98545
upperback -1.04041 1.09155 -1.11397
thorax -0.82742 0.519627 -2.82139
lowerneck -3.39874 -5.72377 -5.68574
upperneck 15.253 -8.00638 6.53816
head 5.64543 -3.70869 2.49831
rclavicle -1.45486e-014 -3.18055e-015
rhumerus 34.2341 32.2169 -58.7849
rradius 46.0527
rwrist 15.6468
rhand -5.11913 -4.21137
rfingers 7.12502
rthumb 20.679 -33.1297
lclavicle -1.45486e-014 -3.18055e-015
lhumerus 40.487 -30.9748 64.8483
lradius 57.2651
lwrist 14.4531
lhand -22.9645 23.0852
lfingers 7.12502
lthumb 3.47734 53.0366
rfemur 1.1095 1.44456 19.509
rtibia 14.3974
rfoot -15.2767 -1.5576
rtoes -6.61335
lfemur 0 0 0
ltibia 0
lfoot 0 0
ltoes 0
1683
root 3.03786 17.7838 0.366378 -31.0488 88.8941 -29.6454
lowerback -0.214304 0.81111 2.88012
upperback -1.06028 1.08838 -1.14314
thorax -0.891555 0.517487 -2.79361
lowerneck -3.37122 -5.73259 -5.7757
upperneck 15.25 -8.02662 6.64415
head 5.64886 -3.71694 2.54551
rclavicle 4.89507e-015 6.95746e-015
rhumerus 33.9677 31.5585 -58.7396
rradius 45.2524
rwrist 15.2293
rhand -5.10998 -4.61389
rfingers 7.12502
rthumb 20.6877 -33.5313
lclavicle 4.89507e-015 6.95746e-015
lhumerus 40.3002 -30.4367 64.8019
lradius 56.3878
lwrist 14.285
lhand -22.7173 23.3955
lfingers 7.12502
lthumb 3.71609 53.3429
rfemur 1.16131 1.36599 19.377
rtibia 14.3548
rfoot -15.2666 -1.56021
rtoes -7.26124
lfemur 0 0 0
ltibia 0
lfoot 0 0
ltoes 0
1684
root 3.03827 17.7773 0.364357 -32.2156 88.9389 -30.8527
lowerback -0.157824 0.785232 2.87759
upperback -1.10419 1.05596 -1.13866
thorax -0.970691 0.49947 -2.78884
lowerneck -3.32619 -5.7352 -5.85196
upperneck 15.2045 -8.03495 6.72061
head 5.6336 -3.72205 2.58276
rclavicle -1.18153e-014 8.74653e-015
rhumerus 33.7512 30.9554 -58.6953
rradius 44.5345
rwrist 14.7011
rhand -4.93099 -5.11641
rfingers 7.12502
rthumb 20.8597 -34.015
lclavicle -1.18153e-014 8.74653e-015
lhumerus 40.0116 -29.9229 64.6508
lradius 55.7126
lwrist 14.188
lhand -22.5286 23.4719
lfingers 7.12502
lthumb 3.89834 53.416
rfemur 1.17527 1.22129 19.3604
rtibia 14.3356
rfoot -15.2126 -1.45821
rtoes -7.62624
lfemur 0 0 0
ltibia 0
lfoot 0 0
ltoes 0
